<svg xmlns="http://www.w3.org/2000/svg" viewBox="0 0 20 20"><path d="M19.69955,12.41912A9.99643,9.99643,0,1,1,12.41775.29925,9.99725,9.99725,0,0,1,19.69955,12.41912Z" fill="#f7931a"/><path d="M14.40742,8.57541c.199-1.33061-.81406-2.04591-2.19936-2.5231l.44938-1.80248L11.56026,3.9764l-.43749,1.755c-.28844-.07188-.58469-.13969-.87906-.20687L10.68433,3.758,9.58778,3.48453,9.1381,5.28638C8.89935,5.232,8.665,5.17826,8.43748,5.1217l.00125-.00563L6.92562,4.73826,6.63375,5.91013s.814.18656.79686.19812a.58383.58383,0,0,1,.51125.63812L7.43,8.79978a.9097.9097,0,0,1,.11406.03656c-.03656-.00906-.07562-.01906-.11593-.02875l-.7175,2.87654a.39937.39937,0,0,1-.5028.26062c.01093.01594-.7975-.19906-.7975-.19906l-.54468,1.25592,1.4278.35594c.26563.06656.52593.13624.78218.20187l-.45406,1.82311,1.09593.27343.44968-1.80373c.29937.08125.59.15625.87437.22687l-.44812,1.7953,1.09717.27343.45406-1.81967c1.87092.35406,3.27778.21125,3.87-1.48092a1.92508,1.92508,0,0,0-1.00812-2.66091,1.74976,1.74976,0,0,0,1.40092-1.61092Zm-2.50686,3.51528c-.33906,1.36249-2.63309.62593-3.37684.44125l.6025-2.41529C9.87,10.30227,12.25493,10.66976,11.90056,12.09069Zm.33938-3.535c-.30938,1.23936-2.21873.60968-2.8381.4553l.54624-2.1906C10.56745,6.97481,12.56212,7.26293,12.23994,8.55573Z" fill="#fff"/></svg>
