<svg id="Слой_1" data-name="Слой 1" xmlns="http://www.w3.org/2000/svg" viewBox="0 0 200 200"><defs><style>.cls-1{fill:#cae6ee;}.cls-2{fill:#669;}.cls-3{fill:#99c;}.cls-4{fill:#79d113;}.cls-5{fill:none;stroke:#cf3;stroke-linecap:round;stroke-linejoin:round;stroke-width:4px;}.cls-6{fill:#aac8ce;}</style></defs><title>Безымянный-3</title><path class="cls-1" d="M153.075,13.56828h-106.78a13.08612,13.08612,0,0,0-12.72,13.12v159.86a13.3594,13.3594,0,0,0,13.21,13.45h106.29a13.47846,13.47846,0,0,0,13.35-13.45v-159.86A13.20351,13.20351,0,0,0,153.075,13.56828Zm-97.43,23.88a7.361,7.361,0,1,1,2.15-5.21A7.33068,7.33068,0,0,1,55.64505,37.44828Zm27.69,0a7.361,7.361,0,1,1,2.15-5.21A7.33667,7.33667,0,0,1,83.33505,37.44828Zm27.69-.01a7.29785,7.29785,0,0,1-5.2,2.16h-.01a7.35762,7.35762,0,1,1,5.21-2.16Zm22.48,2.16a7.355,7.355,0,1,1,7.36-7.36005A7.35978,7.35978,0,0,1,133.505,39.59831Z"/><path class="cls-2" d="M50.441,27.48249a2.65708,2.65708,0,0,1-2.65707-2.65707V2.6588a2.65708,2.65708,0,0,1,5.31415,0V24.82542A2.65708,2.65708,0,0,1,50.441,27.48249Z"/><path class="cls-2" d="M50.441,27.48249a2.65708,2.65708,0,0,1-2.65707-2.65707V2.6588a2.65708,2.65708,0,0,1,5.31415,0V24.82542A2.65708,2.65708,0,0,1,50.441,27.48249Z"/><path class="cls-2" d="M78.129,27.48249a2.65708,2.65708,0,0,1-2.65707-2.65707V2.6588a2.65708,2.65708,0,0,1,5.31415,0V24.82542A2.65708,2.65708,0,0,1,78.129,27.48249Z"/><path class="cls-2" d="M105.81788,27.48249a2.65707,2.65707,0,0,1-2.65707-2.65707V2.6588a2.65707,2.65707,0,0,1,5.31414,0V24.82542A2.65707,2.65707,0,0,1,105.81788,27.48249Z"/><path class="cls-2" d="M133.5059,27.48249a2.65707,2.65707,0,0,1-2.65707-2.65707V2.6588a2.65707,2.65707,0,1,1,5.31414,0V24.82542A2.65706,2.65706,0,0,1,133.5059,27.48249Z"/><path class="cls-3" d="M149.687,72.73907H83.26023a2.65708,2.65708,0,0,1,0-5.31415H149.687a2.65708,2.65708,0,0,1,0,5.31415Z"/><path class="cls-4" d="M52.26106,60.01833a15.37781,15.37781,0,1,1-15.37559,15.38h0A15.37959,15.37959,0,0,1,52.26106,60.01833Z"/><polyline class="cls-5" points="44.399 74.269 50.399 80.269 60.107 70.513"/><path class="cls-3" d="M149.687,117.02359H83.26023a2.65707,2.65707,0,1,1,0-5.31414H149.687a2.65707,2.65707,0,1,1,0,5.31414Z"/><path class="cls-3" d="M125.37481,161.30812H83.26022a2.65707,2.65707,0,0,1,0-5.31414h42.11459a2.65707,2.65707,0,1,1,0,5.31414Z"/><path class="cls-3" d="M118.68786,81.596H83.26023a2.65707,2.65707,0,0,1,0-5.31414h35.42763a2.65707,2.65707,0,0,1,0,5.31414Z"/><path class="cls-3" d="M118.68786,125.8805H83.26023a2.65707,2.65707,0,1,1,0-5.31414h35.42763a2.65707,2.65707,0,1,1,0,5.31414Z"/><path class="cls-3" d="M118.68786,170.165H83.26023a2.65708,2.65708,0,0,1,0-5.31415h35.42763a2.65708,2.65708,0,0,1,0,5.31415Z"/><path class="cls-6" d="M46.78506,13.56828h-.49c.11-.01.22-.01.33-.01C46.675,13.55827,46.73507,13.56828,46.78506,13.56828Z"/><path class="cls-4" d="M52.26106,148.58739a15.3778,15.3778,0,1,1-15.37559,15.38h0A15.37957,15.37957,0,0,1,52.26106,148.58739Z"/><polyline class="cls-5" points="44.399 162.838 50.399 168.838 60.107 159.082"/><path class="cls-4" d="M52.26106,104.30286a15.3778,15.3778,0,1,1-15.37559,15.38h0A15.37957,15.37957,0,0,1,52.26106,104.30286Z"/><polyline class="cls-5" points="44.399 118.553 50.399 124.553 60.107 114.797"/></svg>