<?xml version="1.0" encoding="utf-8"?><svg viewBox="0 0 200 200" xmlns="http://www.w3.org/2000/svg" xmlns:xlink="http://www.w3.org/1999/xlink"><style>:root>svg{display:none}:root>svg:target{display:block}</style><svg viewBox="0 0 20 20" id="bitcoin" xmlns="http://www.w3.org/2000/svg"><path d="M19.7 12.42A9.996 9.996 0 1112.418.3 9.997 9.997 0 0119.7 12.42z" fill="#f7931a"/><path d="M14.407 8.575c.2-1.33-.814-2.045-2.199-2.523l.45-1.802-1.098-.274-.437 1.755c-.289-.071-.585-.14-.88-.206l.441-1.767-1.096-.273-.45 1.801a36.798 36.798 0 01-.7-.164v-.006l-1.512-.378-.292 1.172s.814.187.797.198a.584.584 0 01.51.638L7.43 8.8a.91.91 0 01.114.036l-.116-.028-.717 2.876a.4.4 0 01-.503.26c.01.017-.798-.198-.798-.198l-.544 1.256 1.427.356c.266.066.526.136.783.201l-.454 1.824 1.096.273.45-1.804c.299.081.59.156.874.227l-.449 1.795 1.098.274.454-1.82c1.87.354 3.277.211 3.87-1.48a1.925 1.925 0 00-1.008-2.662 1.75 1.75 0 001.4-1.61zm-2.506 3.516c-.34 1.362-2.634.626-3.377.44l.602-2.414c.744.185 3.129.553 2.775 1.974zm.339-3.535c-.31 1.24-2.219.61-2.838.455l.546-2.19c.62.154 2.614.442 2.292 1.735z" fill="#fff"/></svg><svg id="chose" data-name="Слой 1" viewBox="0 0 200 200" xmlns="http://www.w3.org/2000/svg"><defs><style>.bcls-1{fill:#cae6ee}.bcls-2{fill:#669}.bcls-3{fill:#99c}.bcls-4{fill:#79d113}.bcls-5{fill:none;stroke:#cf3;stroke-linecap:round;stroke-linejoin:round;stroke-width:4px}.bcls-6{fill:#aac8ce}</style></defs><path class="bcls-1" d="M153.075 13.568H46.295a13.086 13.086 0 00-12.72 13.12v159.86a13.36 13.36 0 0013.21 13.45h106.29a13.478 13.478 0 0013.35-13.45V26.688a13.204 13.204 0 00-13.35-13.12zm-97.43 23.88a7.361 7.361 0 112.15-5.21 7.33 7.33 0 01-2.15 5.21zm27.69 0a7.361 7.361 0 112.15-5.21 7.337 7.337 0 01-2.15 5.21zm27.69-.01a7.298 7.298 0 01-5.2 2.16h-.01a7.358 7.358 0 115.21-2.16zm22.48 2.16a7.355 7.355 0 117.36-7.36 7.36 7.36 0 01-7.36 7.36z"/><path class="bcls-2" d="M50.441 27.482a2.657 2.657 0 01-2.657-2.657V2.66a2.657 2.657 0 015.314 0v22.166a2.657 2.657 0 01-2.657 2.657z"/><path class="bcls-2" d="M50.441 27.482a2.657 2.657 0 01-2.657-2.657V2.66a2.657 2.657 0 015.314 0v22.166a2.657 2.657 0 01-2.657 2.657zM78.129 27.482a2.657 2.657 0 01-2.657-2.657V2.66a2.657 2.657 0 015.314 0v22.166a2.657 2.657 0 01-2.657 2.657zM105.818 27.482a2.657 2.657 0 01-2.657-2.657V2.66a2.657 2.657 0 015.314 0v22.166a2.657 2.657 0 01-2.657 2.657zM133.506 27.482a2.657 2.657 0 01-2.657-2.657V2.66a2.657 2.657 0 115.314 0v22.166a2.657 2.657 0 01-2.657 2.657z"/><path class="bcls-3" d="M149.687 72.74H83.26a2.657 2.657 0 010-5.315h66.427a2.657 2.657 0 010 5.314z"/><path class="bcls-4" d="M52.261 60.018a15.378 15.378 0 11-15.376 15.38 15.38 15.38 0 0115.376-15.38z"/><path class="bcls-5" d="M44.399 74.269l6 6 9.708-9.756"/><path class="bcls-3" d="M149.687 117.024H83.26a2.657 2.657 0 110-5.315h66.427a2.657 2.657 0 110 5.315zM125.375 161.308H83.26a2.657 2.657 0 010-5.314h42.115a2.657 2.657 0 110 5.314zM118.688 81.596H83.26a2.657 2.657 0 010-5.314h35.428a2.657 2.657 0 010 5.314zM118.688 125.88H83.26a2.657 2.657 0 110-5.314h35.428a2.657 2.657 0 110 5.315zM118.688 170.165H83.26a2.657 2.657 0 010-5.314h35.428a2.657 2.657 0 010 5.314z"/><path class="bcls-6" d="M46.785 13.568h-.49c.11-.01.22-.01.33-.01.05 0 .11.01.16.01z"/><path class="bcls-4" d="M52.261 148.587a15.378 15.378 0 11-15.376 15.38 15.38 15.38 0 0115.376-15.38z"/><path class="bcls-5" d="M44.399 162.838l6 6 9.708-9.756"/><path class="bcls-4" d="M52.261 104.303a15.378 15.378 0 11-15.376 15.38 15.38 15.38 0 0115.376-15.38z"/><path class="bcls-5" d="M44.399 118.553l6 6 9.708-9.756"/></svg></svg>